<?xml version="1.0" encoding="UTF-8"?>
<svg xmlns="http://www.w3.org/2000/svg" viewBox="0 0 600 320" width="600" height="320">
  <rect x="0" y="0" width="600" height="320" fill="#F4F1EC"/>
  <g font-family="Helvetica, Arial, sans-serif" fill="#0F3D5C">
    <text x="20" y="28" font-size="14" font-weight="700">Revenue by Segment (2022&#8211;2026, USD millions)</text>
  </g>
  <g stroke="#D6CFC4" stroke-width="1">
    <line x1="60" y1="60"  x2="580" y2="60"/>
    <line x1="60" y1="120" x2="580" y2="120"/>
    <line x1="60" y1="180" x2="580" y2="180"/>
    <line x1="60" y1="240" x2="580" y2="240"/>
  </g>
  <g font-family="Helvetica, Arial, sans-serif" font-size="10" fill="#5b6770">
    <text x="50" y="64"  text-anchor="end">800</text>
    <text x="50" y="124" text-anchor="end">600</text>
    <text x="50" y="184" text-anchor="end">400</text>
    <text x="50" y="244" text-anchor="end">200</text>
    <text x="50" y="280" text-anchor="end">0</text>
  </g>
  <g>
    <rect x="80"  y="180" width="28" height="100" fill="#0F3D5C"/>
    <rect x="110" y="150" width="28" height="130" fill="#E07A1F"/>
    <rect x="140" y="210" width="28" height="70"  fill="#5b6770"/>

    <rect x="200" y="160" width="28" height="120" fill="#0F3D5C"/>
    <rect x="230" y="130" width="28" height="150" fill="#E07A1F"/>
    <rect x="260" y="200" width="28" height="80"  fill="#5b6770"/>

    <rect x="320" y="140" width="28" height="140" fill="#0F3D5C"/>
    <rect x="350" y="100" width="28" height="180" fill="#E07A1F"/>
    <rect x="380" y="185" width="28" height="95"  fill="#5b6770"/>

    <rect x="440" y="120" width="28" height="160" fill="#0F3D5C"/>
    <rect x="470" y="80"  width="28" height="200" fill="#E07A1F"/>
    <rect x="500" y="170" width="28" height="110" fill="#5b6770"/>
  </g>
  <g font-family="Helvetica, Arial, sans-serif" font-size="10" fill="#0F3D5C">
    <text x="124" y="298" text-anchor="middle">2023</text>
    <text x="244" y="298" text-anchor="middle">2024</text>
    <text x="364" y="298" text-anchor="middle">2025</text>
    <text x="484" y="298" text-anchor="middle">2026</text>
  </g>
  <g font-family="Helvetica, Arial, sans-serif" font-size="11" fill="#0F3D5C">
    <rect x="60"  y="40" width="12" height="12" fill="#0F3D5C"/>
    <text x="78"  y="50">Industrial</text>
    <rect x="170" y="40" width="12" height="12" fill="#E07A1F"/>
    <text x="188" y="50">Consumer</text>
    <rect x="290" y="40" width="12" height="12" fill="#5b6770"/>
    <text x="308" y="50">Services</text>
  </g>
  <line x1="60" y1="280" x2="580" y2="280" stroke="#0F3D5C" stroke-width="1.5"/>
</svg>
